<?xml version="1.0" standalone="no"?><!DOCTYPE svg PUBLIC "-//W3C//DTD SVG 1.1//EN" "http://www.w3.org/Graphics/SVG/1.1/DTD/svg11.dtd"><svg t="1769267784312" class="icon" viewBox="0 0 1024 1024" version="1.1" xmlns="http://www.w3.org/2000/svg" p-id="11193" xmlns:xlink="http://www.w3.org/1999/xlink" width="200" height="200"><path d="M951.808 53.833143l11.556571 10.825143c54.125714 56.758857 53.101714 146.285714-2.413714 201.874285l-124.708571 124.635429 60.562285 60.854857a57.417143 57.417143 0 0 1 0.365715 80.457143 55.661714 55.661714 0 0 1-72.411429 6.363429l-6.875428-5.851429-52.589715-52.955429-424.521143 409.965715-17.115428 15.945143c-29.769143 25.965714-69.997714 52.297143-121.417143 79.725714A128 128 0 0 1 31.451429 809.033143c33.206857-57.782857 62.537143-99.181714 89.965714-125.659429l428.470857-419.766857-53.174857-53.467428a57.417143 57.417143 0 0 1-0.438857-80.530286 55.661714 55.661714 0 0 1 72.411428-6.363429l6.875429 5.851429 61.732571 62.171428L766.317714 62.244571a137.728 137.728 0 0 1 185.490286-8.411428zM627.931429 340.845714L206.262857 753.883429l-15.067428 14.921142c-17.554286 19.017143-39.350857 50.834286-64.512 94.646858a18.285714 18.285714 0 0 0 24.137142 25.307428c50.249143-26.843429 86.528-51.346286 108.617143-72.777143l429.714286-414.939428-61.220571-60.196572z" fill="#000000" p-id="11194"></path></svg>