<?xml version="1.0" standalone="no"?><!DOCTYPE svg PUBLIC "-//W3C//DTD SVG 1.1//EN" "http://www.w3.org/Graphics/SVG/1.1/DTD/svg11.dtd"><svg t="1769267971535" class="icon" viewBox="0 0 1024 1024" version="1.1" xmlns="http://www.w3.org/2000/svg" p-id="7290" xmlns:xlink="http://www.w3.org/1999/xlink" width="200" height="200"><path d="M512.208754 1.445932C138.335648 1.445932 0 327.525522 0 510.344291c0 182.819792 130.339534 512.209778 501.294171 512.209777 43.163055 0 91.607394-13.579273 91.607394-64.704674 0-84.98865-80.691787-62.715367-80.691787-150.269445 0-38.660508 37.120432-66.662259 100.470249-66.662259 31.506575 0 149.880589 9.850345 222.337831-18.1248 72.459289-27.974122 189.400674-116.901477 189.400674-268.435728-0.001023-133.410476-138.376581-452.91123-512.209778-452.91123zM199.919239 512c-49.133024 0-88.927355-39.83424-88.927355-88.928379 0-49.130977 39.833217-88.966241 88.927355-88.96624 49.092092 0 88.927355 39.83424 88.927355 88.96624 0 49.094138-39.835264 88.928379-88.927355 88.928379z m167.806867-220.053812c-49.133024 0-88.927355-39.83424-88.927356-88.927355 0-49.133024 39.83424-88.927355 88.927356-88.927355s88.927355 39.794331 88.927355 88.927355c0.040932 49.093115-39.794331 88.927355-88.927355 88.927355z m285.260929 0c-49.092092 0-88.927355-39.83424-88.927355-88.927355 0-49.133024 39.83424-88.927355 88.927355-88.927355 49.094138 0 88.927355 39.794331 88.927355 88.927355-0.001023 49.093115-39.833217 88.927355-88.927355 88.927355z m169.344896 220.053812c-49.094138 0-88.927355-39.83424-88.927355-88.928379 0-49.130977 39.833217-88.966241 88.927355-88.96624 49.133024 0 88.966241 39.83424 88.966241 88.96624 0 49.094138-39.833217 88.928379-88.966241 88.928379z" p-id="7291"></path></svg>