<?xml version="1.0" standalone="no"?><!DOCTYPE svg PUBLIC "-//W3C//DTD SVG 1.1//EN" "http://www.w3.org/Graphics/SVG/1.1/DTD/svg11.dtd"><svg t="1769267897059" class="icon" viewBox="0 0 1024 1024" version="1.1" xmlns="http://www.w3.org/2000/svg" p-id="15473" xmlns:xlink="http://www.w3.org/1999/xlink" width="200" height="200"><path d="M182.300135 869.154709C128.320822 816.857678 32.577027 731.427004 31.699315 730.549292l-0.731427-0.658285a99.839786 99.839786 0 0 1 0.658284-145.18826 105.10606 105.10606 0 0 1 132.022575-10.093693l112.786044 53.686743a0.731427 0.731427 0 0 0 1.023997-0.877713L173.011012 270.189135a98.742646 98.742646 0 0 1 2.633137-63.780434c7.972554-20.479956 22.089096-37.741633 40.959913-49.590751 27.794226-17.407963 60.269585-21.94281 88.795238-12.434259 28.525653 9.581694 51.419318 32.621644 62.537009 63.049007l45.494759 124.562019a0.731427 0.731427 0 0 0 1.462854-0.219428V97.279792C414.893922 43.666192 459.364684 0 514.22171 0c26.111944 0 50.761034 9.801122 69.485565 27.721083 18.651389 17.773676 29.25708 41.764482 29.842222 67.291285l2.925708 200.337856a0.731427 0.731427 0 0 0 1.462854 0.219428l41.837624-133.704856c10.459406-29.183937 33.206786-51.273033 62.463867-61.439868a103.862635 103.862635 0 0 1 87.624955 8.996552 99.912929 99.912929 0 0 1 43.519906 117.83289l-52.29703 154.331098a0.731427 0.731427 0 0 0 1.170283 0.731427l51.785032-57.41702c20.260528-20.479956 43.88562-32.182788 68.754138-34.157641 24.941661-1.974853 49.29818 5.851416 70.655849 22.381666 41.691339 32.694787 28.671939 79.725543 28.671938 120.612313 0 40.813627-44.617047 235.812066-99.40093 344.721547-28.086797 55.881023-70.802134 117.320891-128.146011 184.246463A175.542481 175.542481 0 0 1 661.31168 1023.997806H443.712146a234.056641 234.056641 0 0 1-153.526528-57.343877c-46.811328-40.667341-82.651251-73.1427-107.885483-97.49922z m50.90732-52.516459c24.063948 23.259379 59.099302 54.857025 104.959775 94.79294 29.25708 25.45366 66.779285 39.423916 105.544916 39.423915h217.599534a102.399781 102.399781 0 0 0 77.750691-35.76678c53.759885-62.683294 93.1838-119.368887 118.344889-169.471637 22.235381-44.324476 45.49476-111.396333 64.877575-183.953892 15.652538-58.660446 26.697086-114.980325 26.697086-127.999725 0-8.411411 0.219428-14.482255 1.09714-28.306225l0.658285-12.799973c0.731427-18.066247 0.146285-19.821672-2.194281-21.650239-7.31427-5.705131-13.750828-7.753126-19.967958-7.241128a34.011356 34.011356 0 0 0-20.187385 10.239978l-51.785032 57.41702c-35.181639 25.965659-35.181639 25.965659-78.628403 20.479956-49.005609-34.084498-49.005609-34.084498-46.153044-93.622656l52.370174-154.404241a26.770228 26.770228 0 0 0-0.219428-17.773676 27.794226 27.794226 0 0 0-11.702832-13.897113 30.719934 30.719934 0 0 0-26.038802-2.559994c-8.630839 2.925708-14.62854 8.923409-16.603393 14.189683l-41.837624 133.631714c-23.55195 40.959912-23.55195 40.959912-69.485566 51.858175-57.490163-15.725681-57.490163-15.725681-74.898125-72.776987l-2.925708-199.679572a22.893665 22.893665 0 0 0-7.460555-16.310823 26.477658 26.477658 0 0 0-18.797674-7.31427c-14.701683 0-26.185087 11.263976-26.185087 24.137092v234.495497c-9.727979 44.836475-9.727979 44.836475-48.566753 69.33928-59.538158 4.169134-59.538158 4.169134-94.719797-44.031906L299.18217 232.593787c-3.657135-9.947407-10.02055-16.383965-16.895963-18.724531-7.31427-2.413709-17.115392-1.097141-26.770229 4.973704a28.15994 28.15994 0 0 0-11.629689 13.897113 25.599945 25.599945 0 0 0-0.731427 17.042249l104.447776 357.155806c4.388562 26.770228 4.388562 26.770228-4.169134 52.516459-39.570201 44.617047-39.570201 44.617047-98.450075 34.962211l-112.786044-53.759885-10.093692-5.851416a31.96336 31.96336 0 0 0-40.228486 3.071993 26.843371 26.843371 0 0 0-8.703981 19.748529 31.451361 31.451361 0 0 0 4.022849 15.725681l5.70513 4.973704c-3.657135-3.583992 56.61245 50.834177 91.794089 83.382678l4.827419 4.388562c20.991955 19.382816 39.058202 36.425065 53.686742 50.614749z" fill="#5A5E66" p-id="15474"></path></svg>