<?xml version="1.0" standalone="no"?><!DOCTYPE svg PUBLIC "-//W3C//DTD SVG 1.1//EN" "http://www.w3.org/Graphics/SVG/1.1/DTD/svg11.dtd"><svg t="1769267929975" class="icon" viewBox="0 0 1024 1024" version="1.1" xmlns="http://www.w3.org/2000/svg" p-id="17523" xmlns:xlink="http://www.w3.org/1999/xlink" width="200" height="200"><path d="M92.9 384.83l-1.02-0.34-1.02-0.34c-0.44-0.02-0.84-0.28-1.02-0.69-0.37 0.04-0.75-0.08-1.02-0.34l-1.37-0.34-0.69-0.69-1.37-0.69-0.33-0.34-1.37-0.69-0.69-0.34-1.02-1.03c-0.27-0.04-0.5-0.15-0.69-0.34l-1.02-1.03-1.02-0.69a40.65 40.65 0 0 1-3.77-3.77c-0.33-0.25-0.59-0.62-0.69-1.03-0.3-0.13-0.55-0.38-0.69-0.69-0.25-0.42-0.6-0.78-1.02-1.03-0.03-0.26-0.15-0.5-0.33-0.69l-1.02-1.03-0.33-0.69-0.69-1.37-0.33-0.69-1.02-1.37-0.33-0.69-0.69-1.03-0.33-0.69-0.33-1.37-0.33-1.03-0.33-1.03-0.69-1.03v-1.03l-0.33-1.03c-0.27-0.28-0.38-0.65-0.33-1.03l-0.33-1.37c-0.18-0.18-0.3-0.43-0.33-0.69 0-0.34-0.33-1.03-0.33-1.37v-0.69l-0.33-1.37v-2.4c0.05-0.38-0.07-0.75-0.33-1.03v-1.03c-0.35-1.58-0.35-3.22 0-4.8v-0.69c-0.1-0.49 0.02-0.99 0.33-1.37v-2.4l0.33-1.37v-0.65c0.27-0.4 0.38-0.89 0.33-1.37 0.03-0.26 0.15-0.5 0.33-0.69l0.33-1.37v-0.69l0.69-1.37v-1.03l0.33-1.03 0.33-1.03 0.69-1.03 0.33-1.03 0.33-1.03 0.69-1.03 0.33-0.69 1.02-1.37 0.33-0.69 0.69-1.37 0.33-0.34c0.37-0.38 0.6-0.86 0.69-1.37 0.3-0.13 0.55-0.38 0.69-0.69l1.02-1.03 0.69-0.69 0.69-0.69 1.71-1.72L303.44 83.86c17.92-17.82 46.86-17.82 64.79 0 17.89 17.5 18.21 46.19 0.7 64.08l-0.7 0.7-147.74 147.73h694.09c25.37 0 45.92 20.56 45.92 45.93 0 25.36-20.55 45.93-45.92 45.93h-807.2a2.54 2.54 0 0 0-1.37-0.34c-0.37 0.04-0.75-0.08-1.02-0.34h-2.39c-0.4-0.27-0.89-0.39-1.37-0.34h-0.69c-0.33-0.34-1.02-0.34-1.37-0.69h-0.69l-1.37-0.34c-0.27-0.26-0.65-0.38-1.02-0.34l-1.02-0.34M917.7 636.05h2.39l1.02 0.34c0.49-0.1 0.99 0.03 1.37 0.34h0.69l1.37 0.34h1.02l1.37 0.34c0.13 0.24 0.4 0.38 0.69 0.34l1.37 0.34c0.13 0.24 0.4 0.38 0.69 0.34l1.37 0.34 1.02 0.34 1.02 0.34c0.25 0.34 0.62 0.58 1.02 0.69l1.02 0.34 1.02 0.69 0.69 0.34 1.37 0.69 0.69 0.34 1.37 0.69 0.33 0.69c0.54 0.01 1.04 0.26 1.37 0.69 0.13 0.31 0.38 0.55 0.69 0.69 0.33 0.34 0.69 0.34 1.02 0.69 0.1 0.41 0.35 0.78 0.69 1.03 1.46 1.16 2.83 2.42 4.12 3.77l0.69 0.69c0.03 0.36 0.32 0.65 0.69 0.69 0.15 0.49 0.38 0.95 0.69 1.37l0.69 0.34 0.69 1.37 0.69 0.34 0.69 1.37 0.33 0.69 0.69 1.37 0.33 0.69 0.69 1.03 0.33 1.03 0.69 1.03 0.33 1.03 0.33 1.03 0.33 1.03c0.27 0.28 0.38 0.65 0.33 1.03l0.33 1.37c0.02 0.26 0.13 0.51 0.33 0.69l0.33 1.37v0.69c0.27 0.4 0.38 0.89 0.33 1.37v1.03l0.33 1.03 0.33 1.03v2.4c0.35 1.93 0.35 3.9 0 5.83v3.43l-0.33 1.03-0.33 1.37v0.69c-0.07 0.47-0.18 0.92-0.33 1.37v0.69l-0.33 1.72c-0.33 0-0.33 0.34-0.33 0.69l-0.33 1.37c-0.33 0-0.33 0.34-0.33 0.69l-0.33 1.03-0.33 1.37-0.33 1.03-0.69 1.03-0.33 0.69-0.69 1.03-0.33 1.03-0.69 1.03-0.33 0.69-0.69 1.37-0.69 0.69c-0.1 0.41-0.35 0.78-0.69 1.03-0.03 0.36-0.32 0.65-0.69 0.69-0.1 0.41-0.35 0.78-0.69 1.03l-0.69 0.69-1.02 1.03-1.37 1.37-226.23 226.53c-17.92 17.82-46.86 17.82-64.79 0h-0.33c-17.82-17.92-17.82-46.87 0-64.78l148.07-147.73h-694.1c-25.37 0-45.92-20.56-45.92-45.93s20.55-45.93 45.92-45.93h807.2c0.37-0.04 0.75 0.08 1.02 0.34l0.07-0.06z" p-id="17524"></path></svg>